STARTFONT 2.1
FONT -URW-ITC Bookman-Light-R-Normal--12-120-72-72-P-69-ISO8859-1
SIZE 12 72 72
FONTBOUNDINGBOX 20 15 -4 -3

STARTPROPERTIES 22
FONTNAME_REGISTRY "-"
FOUNDRY "URW"
FAMILY_NAME "ITC Bookman"
WEIGHT_NAME "Light"
SLANT "R"
SETWIDTH_NAME "Normal"
ADD_STYLE_NAME ""
PIXEL_SIZE 12
POINT_SIZE 120
RESOLUTION_X 72
RESOLUTION_Y 72
SPACING "P"
CHARSET_REGISTRY "ISO8859"
CHARSET_ENCODING "1"
FULL_NAME "Bookman-Light"
AVERAGE_WIDTH 69
WEIGHT 10
X_HEIGHT 6
QUAD_WIDTH 9
DEFAULT_CHAR 32
FONT_DESCENT 3
FONT_ASCENT 12
ENDPROPERTIES

CHARS 190

STARTCHAR space
ENCODING 32
SWIDTH 320 0
DWIDTH 4 0
BBX 1 1 0 0
BITMAP
00
ENDCHAR

STARTCHAR exclam
ENCODING 33
SWIDTH 300 0
DWIDTH 4 0
BBX 1 9 1 0
BITMAP
80
80
80
80
80
80
80
00
80
ENDCHAR

STARTCHAR quotedbl
ENCODING 34
SWIDTH 380 0
DWIDTH 5 0
BBX 3 3 1 6
BITMAP
A0
A0
A0
ENDCHAR

STARTCHAR numbersign
ENCODING 35
SWIDTH 620 0
DWIDTH 7 0
BBX 6 9 1 0
BITMAP
28
28
28
FC
48
FC
50
50
50
ENDCHAR

STARTCHAR dollar
ENCODING 36
SWIDTH 620 0
DWIDTH 7 0
BBX 6 12 1 -2
BITMAP
10
78
94
94
90
78
14
94
94
78
10
10
ENDCHAR

STARTCHAR percent
ENCODING 37
SWIDTH 900 0
DWIDTH 11 0
BBX 10 9 0 0
BITMAP
6100
9200
9200
9400
6D80
0A40
1240
1240
2180
ENDCHAR

STARTCHAR ampersand
ENCODING 38
SWIDTH 800 0
DWIDTH 10 0
BBX 8 9 1 0
BITMAP
38
48
48
77
D2
8A
84
CE
7B
ENDCHAR

STARTCHAR quoteright
ENCODING 39
SWIDTH 220 0
DWIDTH 3 0
BBX 1 2 1 7
BITMAP
80
80
ENDCHAR

STARTCHAR parenleft
ENCODING 40
SWIDTH 300 0
DWIDTH 4 0
BBX 2 11 1 -2
BITMAP
40
80
80
80
80
80
80
80
80
80
40
ENDCHAR

STARTCHAR parenright
ENCODING 41
SWIDTH 300 0
DWIDTH 4 0
BBX 2 11 0 -2
BITMAP
80
40
40
40
40
40
40
40
40
40
80
ENDCHAR

STARTCHAR asterisk
ENCODING 42
SWIDTH 440 0
DWIDTH 5 0
BBX 4 4 1 4
BITMAP
50
E0
70
A0
ENDCHAR

STARTCHAR plus
ENCODING 43
SWIDTH 600 0
DWIDTH 7 0
BBX 7 5 0 1
BITMAP
10
10
FE
10
10
ENDCHAR

STARTCHAR comma
ENCODING 44
SWIDTH 320 0
DWIDTH 4 0
BBX 1 2 1 -1
BITMAP
80
80
ENDCHAR

STARTCHAR minus
ENCODING 45
SWIDTH 600 0
DWIDTH 7 0
BBX 6 1 1 4
BITMAP
FC
ENDCHAR

STARTCHAR period
ENCODING 46
SWIDTH 320 0
DWIDTH 4 0
BBX 1 1 1 0
BITMAP
80
ENDCHAR

STARTCHAR slash
ENCODING 47
SWIDTH 600 0
DWIDTH 7 0
BBX 6 11 1 -2
BITMAP
0C
08
10
10
10
20
20
40
40
40
80
ENDCHAR

STARTCHAR zero
ENCODING 48
SWIDTH 620 0
DWIDTH 7 0
BBX 6 9 1 0
BITMAP
30
48
84
84
84
84
84
48
30
ENDCHAR

STARTCHAR one
ENCODING 49
SWIDTH 620 0
DWIDTH 7 0
BBX 3 9 2 0
BITMAP
C0
40
40
40
40
40
40
40
E0
ENDCHAR

STARTCHAR two
ENCODING 50
SWIDTH 620 0
DWIDTH 7 0
BBX 7 9 0 0
BITMAP
78
84
84
84
0C
18
30
C2
FE
ENDCHAR

STARTCHAR three
ENCODING 51
SWIDTH 620 0
DWIDTH 7 0
BBX 6 9 1 0
BITMAP
78
84
84
88
3C
04
84
84
78
ENDCHAR

STARTCHAR four
ENCODING 52
SWIDTH 620 0
DWIDTH 7 0
BBX 7 9 0 0
BITMAP
18
18
28
28
48
C8
FE
08
1C
ENDCHAR

STARTCHAR five
ENCODING 53
SWIDTH 620 0
DWIDTH 7 0
BBX 6 9 1 0
BITMAP
F8
80
80
F8
8C
04
84
8C
78
ENDCHAR

STARTCHAR six
ENCODING 54
SWIDTH 620 0
DWIDTH 7 0
BBX 6 9 1 0
BITMAP
38
44
80
80
F8
84
84
84
78
ENDCHAR

STARTCHAR seven
ENCODING 55
SWIDTH 620 0
DWIDTH 7 0
BBX 6 9 1 0
BITMAP
FC
8C
08
10
30
30
20
60
60
ENDCHAR

STARTCHAR eight
ENCODING 56
SWIDTH 620 0
DWIDTH 7 0
BBX 6 9 1 0
BITMAP
78
84
84
F8
78
84
84
CC
78
ENDCHAR

STARTCHAR nine
ENCODING 57
SWIDTH 620 0
DWIDTH 7 0
BBX 6 9 1 0
BITMAP
78
C8
84
84
CC
7C
84
88
70
ENDCHAR

STARTCHAR colon
ENCODING 58
SWIDTH 320 0
DWIDTH 4 0
BBX 1 6 1 0
BITMAP
80
00
00
00
00
80
ENDCHAR

STARTCHAR semicolon
ENCODING 59
SWIDTH 320 0
DWIDTH 4 0
BBX 1 7 1 -1
BITMAP
80
00
00
00
00
80
80
ENDCHAR

STARTCHAR less
ENCODING 60
SWIDTH 600 0
DWIDTH 7 0
BBX 6 6 1 0
BITMAP
04
38
C0
C0
38
04
ENDCHAR

STARTCHAR equal
ENCODING 61
SWIDTH 600 0
DWIDTH 7 0
BBX 6 4 1 2
BITMAP
FC
00
00
FC
ENDCHAR

STARTCHAR greater
ENCODING 62
SWIDTH 600 0
DWIDTH 7 0
BBX 6 6 1 0
BITMAP
80
70
0C
0C
70
80
ENDCHAR

STARTCHAR question
ENCODING 63
SWIDTH 540 0
DWIDTH 6 0
BBX 6 9 0 0
BITMAP
78
84
84
04
18
20
20
00
20
ENDCHAR

STARTCHAR at
ENCODING 64
SWIDTH 820 0
DWIDTH 10 0
BBX 9 9 0 0
BITMAP
1E00
6100
DE80
B280
A280
A580
FF80
6100
1E00
ENDCHAR

STARTCHAR A
ENCODING 65
SWIDTH 680 0
DWIDTH 8 0
BBX 9 9 0 0
BITMAP
0800
1800
1400
1400
2400
3E00
4200
4100
E380
ENDCHAR

STARTCHAR B
ENCODING 66
SWIDTH 740 0
DWIDTH 9 0
BBX 8 9 0 0
BITMAP
FE
43
41
41
7E
41
41
43
FE
ENDCHAR

STARTCHAR C
ENCODING 67
SWIDTH 740 0
DWIDTH 9 0
BBX 7 9 1 0
BITMAP
3A
46
82
82
80
80
82
46
3C
ENDCHAR

STARTCHAR D
ENCODING 68
SWIDTH 800 0
DWIDTH 10 0
BBX 8 9 1 0
BITMAP
FC
42
41
41
41
41
41
42
FC
ENDCHAR

STARTCHAR E
ENCODING 69
SWIDTH 720 0
DWIDTH 9 0
BBX 8 9 0 0
BITMAP
FE
43
49
48
78
48
49
43
FE
ENDCHAR

STARTCHAR F
ENCODING 70
SWIDTH 640 0
DWIDTH 8 0
BBX 7 9 1 0
BITMAP
FC
46
4A
48
78
48
48
40
E0
ENDCHAR

STARTCHAR G
ENCODING 71
SWIDTH 800 0
DWIDTH 10 0
BBX 9 9 0 0
BITMAP
3D00
4300
8100
8000
8000
8380
C100
4300
3D00
ENDCHAR

STARTCHAR H
ENCODING 72
SWIDTH 800 0
DWIDTH 10 0
BBX 8 9 1 0
BITMAP
E7
42
42
42
7E
42
42
42
E7
ENDCHAR

STARTCHAR I
ENCODING 73
SWIDTH 340 0
DWIDTH 4 0
BBX 3 9 0 0
BITMAP
E0
40
40
40
40
40
40
40
E0
ENDCHAR

STARTCHAR J
ENCODING 74
SWIDTH 600 0
DWIDTH 7 0
BBX 7 9 0 0
BITMAP
0E
04
04
04
04
84
84
8C
78
ENDCHAR

STARTCHAR K
ENCODING 75
SWIDTH 720 0
DWIDTH 9 0
BBX 9 9 0 0
BITMAP
EF00
4400
4800
7000
6800
4800
4400
4600
EF80
ENDCHAR

STARTCHAR L
ENCODING 76
SWIDTH 600 0
DWIDTH 7 0
BBX 7 9 0 0
BITMAP
E0
40
40
40
40
40
42
46
FC
ENDCHAR

STARTCHAR M
ENCODING 77
SWIDTH 920 0
DWIDTH 11 0
BBX 10 9 1 0
BITMAP
E1C0
6180
5280
5280
5280
5280
4C80
4C80
E9C0
ENDCHAR

STARTCHAR N
ENCODING 78
SWIDTH 740 0
DWIDTH 9 0
BBX 9 9 0 0
BITMAP
E380
6100
5100
5900
4900
4500
4500
4300
E100
ENDCHAR

STARTCHAR O
ENCODING 79
SWIDTH 800 0
DWIDTH 10 0
BBX 8 9 1 0
BITMAP
3C
42
81
81
81
81
81
42
3C
ENDCHAR

STARTCHAR P
ENCODING 80
SWIDTH 620 0
DWIDTH 7 0
BBX 7 9 0 0
BITMAP
FC
46
42
42
46
7C
40
40
E0
ENDCHAR

STARTCHAR Q
ENCODING 81
SWIDTH 820 0
DWIDTH 10 0
BBX 8 12 1 -3
BITMAP
3C
42
81
81
81
81
81
42
7F
41
63
1E
ENDCHAR

STARTCHAR R
ENCODING 82
SWIDTH 720 0
DWIDTH 9 0
BBX 8 9 1 0
BITMAP
FC
46
42
42
46
7C
48
44
E3
ENDCHAR

STARTCHAR S
ENCODING 83
SWIDTH 660 0
DWIDTH 8 0
BBX 7 9 0 0
BITMAP
78
8C
84
E0
1C
02
82
C6
BC
ENDCHAR

STARTCHAR T
ENCODING 84
SWIDTH 620 0
DWIDTH 7 0
BBX 9 9 0 0
BITMAP
7F00
C980
8880
0800
0800
0800
0800
0800
1C00
ENDCHAR

STARTCHAR U
ENCODING 85
SWIDTH 780 0
DWIDTH 9 0
BBX 9 9 0 0
BITMAP
E380
4100
4100
4100
4100
4100
4100
6300
3E00
ENDCHAR

STARTCHAR V
ENCODING 86
SWIDTH 700 0
DWIDTH 8 0
BBX 9 9 0 0
BITMAP
F380
6100
2100
2200
2200
1200
1400
0C00
0800
ENDCHAR

STARTCHAR W
ENCODING 87
SWIDTH 960 0
DWIDTH 12 0
BBX 12 9 0 0
BITMAP
EF70
4620
2620
2620
2540
1540
1940
1880
0880
ENDCHAR

STARTCHAR X
ENCODING 88
SWIDTH 720 0
DWIDTH 9 0
BBX 9 9 0 0
BITMAP
7380
2100
1600
0C00
1400
1600
2200
6300
E780
ENDCHAR

STARTCHAR Y
ENCODING 89
SWIDTH 640 0
DWIDTH 8 0
BBX 8 9 0 0
BITMAP
E7
42
24
3C
18
10
10
10
38
ENDCHAR

STARTCHAR Z
ENCODING 90
SWIDTH 640 0
DWIDTH 8 0
BBX 8 9 0 0
BITMAP
7F
C2
84
08
18
10
21
43
FE
ENDCHAR

STARTCHAR bracketleft
ENCODING 91
SWIDTH 300 0
DWIDTH 4 0
BBX 2 11 1 -2
BITMAP
C0
80
80
80
80
80
80
80
80
80
C0
ENDCHAR

STARTCHAR backslash
ENCODING 92
SWIDTH 600 0
DWIDTH 7 0
BBX 6 11 1 -2
BITMAP
80
40
40
40
20
20
10
10
10
08
0C
ENDCHAR

STARTCHAR bracketright
ENCODING 93
SWIDTH 300 0
DWIDTH 4 0
BBX 2 11 0 -2
BITMAP
C0
40
40
40
40
40
40
40
40
40
C0
ENDCHAR

STARTCHAR asciicircum
ENCODING 94
SWIDTH 600 0
DWIDTH 7 0
BBX 6 5 1 4
BITMAP
30
30
48
48
84
ENDCHAR

STARTCHAR underscore
ENCODING 95
SWIDTH 500 0
DWIDTH 6 0
BBX 6 1 0 -2
BITMAP
FC
ENDCHAR

STARTCHAR quoteleft
ENCODING 96
SWIDTH 220 0
DWIDTH 3 0
BBX 1 2 1 7
BITMAP
80
80
ENDCHAR

STARTCHAR a
ENCODING 97
SWIDTH 580 0
DWIDTH 7 0
BBX 6 6 1 0
BITMAP
70
88
78
88
88
7C
ENDCHAR

STARTCHAR b
ENCODING 98
SWIDTH 620 0
DWIDTH 7 0
BBX 7 9 0 0
BITMAP
C0
40
40
7C
46
42
42
46
7C
ENDCHAR

STARTCHAR c
ENCODING 99
SWIDTH 520 0
DWIDTH 6 0
BBX 5 6 1 0
BITMAP
70
88
88
80
C8
70
ENDCHAR

STARTCHAR d
ENCODING 100
SWIDTH 620 0
DWIDTH 7 0
BBX 7 9 0 0
BITMAP
0C
04
04
7C
C4
84
84
C4
7E
ENDCHAR

STARTCHAR e
ENCODING 101
SWIDTH 520 0
DWIDTH 6 0
BBX 5 6 1 0
BITMAP
70
88
F8
80
88
70
ENDCHAR

STARTCHAR f
ENCODING 102
SWIDTH 320 0
DWIDTH 4 0
BBX 4 9 1 0
BITMAP
30
40
40
E0
40
40
40
40
E0
ENDCHAR

STARTCHAR g
ENCODING 103
SWIDTH 540 0
DWIDTH 6 0
BBX 6 9 0 -3
BITMAP
7C
88
88
88
70
78
84
84
78
ENDCHAR

STARTCHAR h
ENCODING 104
SWIDTH 660 0
DWIDTH 8 0
BBX 7 9 0 0
BITMAP
C0
40
40
7C
44
44
44
44
EE
ENDCHAR

STARTCHAR i
ENCODING 105
SWIDTH 300 0
DWIDTH 4 0
BBX 3 9 0 0
BITMAP
40
00
00
C0
40
40
40
40
E0
ENDCHAR

STARTCHAR j
ENCODING 106
SWIDTH 300 0
DWIDTH 4 0
BBX 4 12 0 -3
BITMAP
10
00
00
30
10
10
10
10
10
10
10
E0
ENDCHAR

STARTCHAR k
ENCODING 107
SWIDTH 620 0
DWIDTH 7 0
BBX 7 9 0 0
BITMAP
C0
40
40
5E
48
70
48
48
EE
ENDCHAR

STARTCHAR l
ENCODING 108
SWIDTH 300 0
DWIDTH 4 0
BBX 3 9 0 0
BITMAP
C0
40
40
40
40
40
40
40
E0
ENDCHAR

STARTCHAR m
ENCODING 109
SWIDTH 940 0
DWIDTH 11 0
BBX 11 6 0 0
BITMAP
FFC0
4440
4440
4440
4440
EEE0
ENDCHAR

STARTCHAR n
ENCODING 110
SWIDTH 660 0
DWIDTH 8 0
BBX 7 6 1 0
BITMAP
FC
44
44
44
44
EE
ENDCHAR

STARTCHAR o
ENCODING 111
SWIDTH 560 0
DWIDTH 7 0
BBX 6 6 0 0
BITMAP
78
CC
84
84
CC
78
ENDCHAR

STARTCHAR p
ENCODING 112
SWIDTH 620 0
DWIDTH 7 0
BBX 7 9 0 -3
BITMAP
FC
46
42
42
46
7C
40
40
E0
ENDCHAR

STARTCHAR q
ENCODING 113
SWIDTH 580 0
DWIDTH 7 0
BBX 6 9 1 -3
BITMAP
78
C8
88
88
88
78
08
08
1C
ENDCHAR

STARTCHAR r
ENCODING 114
SWIDTH 440 0
DWIDTH 5 0
BBX 5 6 0 0
BITMAP
F8
40
40
40
40
E0
ENDCHAR

STARTCHAR s
ENCODING 115
SWIDTH 520 0
DWIDTH 6 0
BBX 5 6 1 0
BITMAP
78
88
E0
18
88
F0
ENDCHAR

STARTCHAR t
ENCODING 116
SWIDTH 380 0
DWIDTH 5 0
BBX 4 9 0 0
BITMAP
40
40
40
F0
40
40
40
50
60
ENDCHAR

STARTCHAR u
ENCODING 117
SWIDTH 680 0
DWIDTH 8 0
BBX 7 6 1 0
BITMAP
CC
44
44
44
44
7E
ENDCHAR

STARTCHAR v
ENCODING 118
SWIDTH 520 0
DWIDTH 6 0
BBX 7 6 0 0
BITMAP
EE
44
64
28
28
10
ENDCHAR

STARTCHAR w
ENCODING 119
SWIDTH 780 0
DWIDTH 9 0
BBX 10 6 0 0
BITMAP
F5C0
4C80
4C80
2D00
3300
1200
ENDCHAR

STARTCHAR x
ENCODING 120
SWIDTH 560 0
DWIDTH 7 0
BBX 7 6 0 0
BITMAP
EE
28
18
28
44
EE
ENDCHAR

STARTCHAR y
ENCODING 121
SWIDTH 540 0
DWIDTH 6 0
BBX 7 9 0 -3
BITMAP
EE
44
64
28
28
10
10
20
E0
ENDCHAR

STARTCHAR z
ENCODING 122
SWIDTH 480 0
DWIDTH 6 0
BBX 6 6 0 0
BITMAP
FC
C8
90
24
4C
F8
ENDCHAR

STARTCHAR braceleft
ENCODING 123
SWIDTH 280 0
DWIDTH 3 0
BBX 3 11 0 -2
BITMAP
60
40
40
40
40
80
40
40
40
40
60
ENDCHAR

STARTCHAR bar
ENCODING 124
SWIDTH 600 0
DWIDTH 7 0
BBX 1 9 3 0
BITMAP
80
80
80
80
80
80
80
80
80
ENDCHAR

STARTCHAR braceright
ENCODING 125
SWIDTH 280 0
DWIDTH 3 0
BBX 3 11 0 -2
BITMAP
C0
40
40
40
40
20
40
40
40
40
C0
ENDCHAR

STARTCHAR asciitilde
ENCODING 126
SWIDTH 600 0
DWIDTH 7 0
BBX 6 2 1 2
BITMAP
64
98
ENDCHAR

STARTCHAR exclamdown
ENCODING 161
SWIDTH 300 0
DWIDTH 4 0
BBX 1 9 1 -3
BITMAP
80
00
80
80
80
80
80
80
80
ENDCHAR

STARTCHAR cent
ENCODING 162
SWIDTH 620 0
DWIDTH 7 0
BBX 4 8 2 1
BITMAP
20
70
A0
A0
A0
70
20
20
ENDCHAR

STARTCHAR sterling
ENCODING 163
SWIDTH 620 0
DWIDTH 7 0
BBX 7 9 0 0
BITMAP
38
44
44
40
F8
20
EE
B2
EE
ENDCHAR

STARTCHAR currency
ENCODING 164
SWIDTH 620 0
DWIDTH 7 0
BBX 6 7 1 1
BITMAP
B4
48
84
84
84
48
B4
ENDCHAR

STARTCHAR yen
ENCODING 165
SWIDTH 620 0
DWIDTH 7 0
BBX 9 9 0 0
BITMAP
F380
2100
2200
1200
7F00
0800
7F00
0800
1C00
ENDCHAR

STARTCHAR brokenbar
ENCODING 166
SWIDTH 600 0
DWIDTH 7 0
BBX 1 9 3 0
BITMAP
80
80
80
00
00
80
80
80
80
ENDCHAR

STARTCHAR section
ENCODING 167
SWIDTH 520 0
DWIDTH 6 0
BBX 5 11 1 -2
BITMAP
70
88
88
60
98
88
78
10
88
88
70
ENDCHAR

STARTCHAR dieresis
ENCODING 168
SWIDTH 420 0
DWIDTH 5 0
BBX 3 1 1 8
BITMAP
A0
ENDCHAR

STARTCHAR copyright
ENCODING 169
SWIDTH 740 0
DWIDTH 9 0
BBX 9 9 0 0
BITMAP
3E00
6300
DF80
B280
A080
A080
F380
7F00
3E00
ENDCHAR

STARTCHAR ordfeminine
ENCODING 170
SWIDTH 420 0
DWIDTH 5 0
BBX 4 6 1 3
BITMAP
E0
20
E0
A0
60
F0
ENDCHAR

STARTCHAR guillemotleft
ENCODING 171
SWIDTH 360 0
DWIDTH 4 0
BBX 2 4 1 1
BITMAP
40
C0
C0
C0
ENDCHAR

STARTCHAR logicalnot
ENCODING 172
SWIDTH 600 0
DWIDTH 7 0
BBX 6 4 1 1
BITMAP
FC
04
04
04
ENDCHAR

STARTCHAR hyphen
ENCODING 173
SWIDTH 400 0
DWIDTH 5 0
BBX 3 1 1 3
BITMAP
E0
ENDCHAR

STARTCHAR registered
ENCODING 174
SWIDTH 740 0
DWIDTH 9 0
BBX 9 9 0 0
BITMAP
3E00
6300
FF80
9280
9E80
9680
FB80
6300
3E00
ENDCHAR

STARTCHAR macron
ENCODING 175
SWIDTH 440 0
DWIDTH 5 0
BBX 4 1 1 7
BITMAP
F0
ENDCHAR

STARTCHAR degree
ENCODING 176
SWIDTH 400 0
DWIDTH 4 0
BBX 4 5 0 4
BITMAP
60
90
90
90
60
ENDCHAR

STARTCHAR plusminus
ENCODING 177
SWIDTH 600 0
DWIDTH 7 0
BBX 7 6 0 0
BITMAP
10
10
FE
10
10
FE
ENDCHAR

STARTCHAR twosuperior
ENCODING 178
SWIDTH 372 0
DWIDTH 4 0
BBX 4 5 -3 4
BITMAP
F0
90
10
60
F0
ENDCHAR

STARTCHAR threesuperior
ENCODING 179
SWIDTH 372 0
DWIDTH 4 0
BBX 4 5 -3 4
BITMAP
F0
30
10
90
E0
ENDCHAR

STARTCHAR acute
ENCODING 180
SWIDTH 340 0
DWIDTH 4 0
BBX 2 1 1 8
BITMAP
C0
ENDCHAR

STARTCHAR mu
ENCODING 181
SWIDTH 680 0
DWIDTH 8 0
BBX 7 9 1 -3
BITMAP
CC
44
44
44
44
7E
40
40
40
ENDCHAR

STARTCHAR paragraph
ENCODING 182
SWIDTH 600 0
DWIDTH 7 0
BBX 7 9 0 0
BITMAP
7E
D4
94
94
D4
74
14
14
3E
ENDCHAR

STARTCHAR periodcentered
ENCODING 183
SWIDTH 320 0
DWIDTH 6 0
BBX 2 2 2 3
BITMAP
C0
C0
ENDCHAR

STARTCHAR cedilla
ENCODING 184
SWIDTH 320 0
DWIDTH 4 0
BBX 2 2 1 -3
BITMAP
C0
C0
ENDCHAR

STARTCHAR onesuperior
ENCODING 185
SWIDTH 372 0
DWIDTH 4 0
BBX 3 5 -4 4
BITMAP
C0
40
40
40
E0
ENDCHAR

STARTCHAR ordmasculine
ENCODING 186
SWIDTH 420 0
DWIDTH 5 0
BBX 4 6 1 3
BITMAP
60
90
90
90
60
F0
ENDCHAR

STARTCHAR guillemotright
ENCODING 187
SWIDTH 360 0
DWIDTH 4 0
BBX 3 4 1 1
BITMAP
C0
60
60
C0
ENDCHAR

STARTCHAR onequarter
ENCODING 188
SWIDTH 930 0
DWIDTH 11 0
BBX 10 9 4 0
BITMAP
C180
4300
4200
4400
E480
0980
1280
13C0
2080
ENDCHAR

STARTCHAR onehalf
ENCODING 189
SWIDTH 930 0
DWIDTH 11 0
BBX 10 9 4 0
BITMAP
C180
4300
4200
4400
E780
0A40
1040
1180
23C0
ENDCHAR

STARTCHAR threequarters
ENCODING 190
SWIDTH 930 0
DWIDTH 11 0
BBX 10 9 4 0
BITMAP
E180
1300
7200
1400
E480
0980
1280
13C0
2080
ENDCHAR

STARTCHAR questiondown
ENCODING 191
SWIDTH 540 0
DWIDTH 6 0
BBX 6 9 0 -3
BITMAP
10
00
10
10
60
80
84
84
78
ENDCHAR

STARTCHAR Agrave
ENCODING 192
SWIDTH 680 0
DWIDTH 8 0
BBX 9 11 0 0
BITMAP
1000
0800
0800
1800
1400
1400
2400
3E00
4200
4100
E380
ENDCHAR

STARTCHAR Aacute
ENCODING 193
SWIDTH 680 0
DWIDTH 8 0
BBX 9 11 0 0
BITMAP
0200
0400
0800
1800
1400
1400
2400
3E00
4200
4100
E380
ENDCHAR

STARTCHAR Acircumflex
ENCODING 194
SWIDTH 680 0
DWIDTH 8 0
BBX 9 12 0 0
BITMAP
0800
1400
0000
0800
1800
1400
1400
2400
3E00
4200
4100
E380
ENDCHAR

STARTCHAR Atilde
ENCODING 195
SWIDTH 680 0
DWIDTH 8 0
BBX 9 11 0 0
BITMAP
1E00
0000
0800
1800
1400
1400
2400
3E00
4200
4100
E380
ENDCHAR

STARTCHAR Adieresis
ENCODING 196
SWIDTH 680 0
DWIDTH 8 0
BBX 9 11 0 0
BITMAP
1400
0000
0800
1800
1400
1400
2400
3E00
4200
4100
E380
ENDCHAR

STARTCHAR Aring
ENCODING 197
SWIDTH 680 0
DWIDTH 8 0
BBX 9 12 0 0
BITMAP
0C00
1200
1200
0C00
1800
1400
1400
2400
3E00
4200
4100
E380
ENDCHAR

STARTCHAR AE
ENCODING 198
SWIDTH 1260 0
DWIDTH 15 0
BBX 16 9 0 0
BITMAP
00FE
01C3
0349
0648
0FF8
0848
1049
2043
F0FE
ENDCHAR

STARTCHAR Ccedilla
ENCODING 199
SWIDTH 740 0
DWIDTH 9 0
BBX 7 11 1 -2
BITMAP
3A
46
82
82
80
80
82
46
3C
10
30
ENDCHAR

STARTCHAR Egrave
ENCODING 200
SWIDTH 720 0
DWIDTH 9 0
BBX 8 11 0 0
BITMAP
10
08
FE
43
49
48
78
48
49
43
FE
ENDCHAR

STARTCHAR Eacute
ENCODING 201
SWIDTH 720 0
DWIDTH 9 0
BBX 8 11 0 0
BITMAP
08
10
FE
43
49
48
78
48
49
43
FE
ENDCHAR

STARTCHAR Ecircumflex
ENCODING 202
SWIDTH 720 0
DWIDTH 9 0
BBX 8 12 0 0
BITMAP
10
28
00
FE
43
49
48
78
48
49
43
FE
ENDCHAR

STARTCHAR Edieresis
ENCODING 203
SWIDTH 720 0
DWIDTH 9 0
BBX 8 11 0 0
BITMAP
28
00
FE
43
49
48
78
48
49
43
FE
ENDCHAR

STARTCHAR Igrave
ENCODING 204
SWIDTH 340 0
DWIDTH 4 0
BBX 3 11 0 0
BITMAP
40
20
E0
40
40
40
40
40
40
40
E0
ENDCHAR

STARTCHAR Iacute
ENCODING 205
SWIDTH 340 0
DWIDTH 4 0
BBX 3 11 0 0
BITMAP
20
40
E0
40
40
40
40
40
40
40
E0
ENDCHAR

STARTCHAR Icircumflex
ENCODING 206
SWIDTH 340 0
DWIDTH 4 0
BBX 3 12 0 0
BITMAP
40
A0
00
E0
40
40
40
40
40
40
40
E0
ENDCHAR

STARTCHAR Idieresis
ENCODING 207
SWIDTH 340 0
DWIDTH 4 0
BBX 3 11 0 0
BITMAP
A0
00
E0
40
40
40
40
40
40
40
E0
ENDCHAR

STARTCHAR Eth
ENCODING 208
SWIDTH 800 0
DWIDTH 10 0
BBX 8 9 1 0
BITMAP
FC
42
41
41
F1
41
41
42
FC
ENDCHAR

STARTCHAR Ntilde
ENCODING 209
SWIDTH 740 0
DWIDTH 9 0
BBX 9 11 0 0
BITMAP
3C00
0000
E380
6100
5100
5900
4900
4500
4500
4300
E100
ENDCHAR

STARTCHAR Ograve
ENCODING 210
SWIDTH 800 0
DWIDTH 10 0
BBX 8 11 1 0
BITMAP
10
08
3C
42
81
81
81
81
81
42
3C
ENDCHAR

STARTCHAR Oacute
ENCODING 211
SWIDTH 800 0
DWIDTH 10 0
BBX 8 11 1 0
BITMAP
08
10
3C
42
81
81
81
81
81
42
3C
ENDCHAR

STARTCHAR Ocircumflex
ENCODING 212
SWIDTH 800 0
DWIDTH 10 0
BBX 8 12 1 0
BITMAP
10
28
00
3C
42
81
81
81
81
81
42
3C
ENDCHAR

STARTCHAR Otilde
ENCODING 213
SWIDTH 800 0
DWIDTH 10 0
BBX 8 11 1 0
BITMAP
3C
00
3C
42
81
81
81
81
81
42
3C
ENDCHAR

STARTCHAR Odieresis
ENCODING 214
SWIDTH 800 0
DWIDTH 10 0
BBX 8 11 1 0
BITMAP
28
00
3C
42
81
81
81
81
81
42
3C
ENDCHAR

STARTCHAR multiply
ENCODING 215
SWIDTH 600 0
DWIDTH 7 0
BBX 5 5 1 2
BITMAP
88
50
20
50
88
ENDCHAR

STARTCHAR Oslash
ENCODING 216
SWIDTH 800 0
DWIDTH 10 0
BBX 8 10 1 0
BITMAP
01
3E
46
85
89
91
B1
A1
42
BC
ENDCHAR

STARTCHAR Ugrave
ENCODING 217
SWIDTH 780 0
DWIDTH 9 0
BBX 9 11 0 0
BITMAP
0800
0400
E380
4100
4100
4100
4100
4100
4100
6300
3E00
ENDCHAR

STARTCHAR Uacute
ENCODING 218
SWIDTH 780 0
DWIDTH 9 0
BBX 9 11 0 0
BITMAP
0400
0800
E380
4100
4100
4100
4100
4100
4100
6300
3E00
ENDCHAR

STARTCHAR Ucircumflex
ENCODING 219
SWIDTH 780 0
DWIDTH 9 0
BBX 9 12 0 0
BITMAP
0800
1400
0000
E380
4100
4100
4100
4100
4100
4100
6300
3E00
ENDCHAR

STARTCHAR Udieresis
ENCODING 220
SWIDTH 780 0
DWIDTH 9 0
BBX 9 11 0 0
BITMAP
1400
0000
E380
4100
4100
4100
4100
4100
4100
6300
3E00
ENDCHAR

STARTCHAR Yacute
ENCODING 221
SWIDTH 640 0
DWIDTH 8 0
BBX 8 11 0 0
BITMAP
14
00
E7
42
24
3C
18
10
10
10
38
ENDCHAR

STARTCHAR Thorn
ENCODING 222
SWIDTH 620 0
DWIDTH 7 0
BBX 7 9 0 0
BITMAP
E0
40
7C
42
42
42
7C
40
E0
ENDCHAR

STARTCHAR germandbls
ENCODING 223
SWIDTH 660 0
DWIDTH 8 0
BBX 9 10 0 -1
BITMAP
0E00
1900
1300
3400
1300
1080
1080
1180
1F00
E000
ENDCHAR

STARTCHAR agrave
ENCODING 224
SWIDTH 580 0
DWIDTH 7 0
BBX 6 8 1 0
BITMAP
40
20
70
88
78
88
88
7C
ENDCHAR

STARTCHAR aacute
ENCODING 225
SWIDTH 580 0
DWIDTH 7 0
BBX 6 8 1 0
BITMAP
10
20
70
88
78
88
88
7C
ENDCHAR

STARTCHAR acircumflex
ENCODING 226
SWIDTH 580 0
DWIDTH 7 0
BBX 6 9 1 0
BITMAP
20
50
00
70
88
78
88
88
7C
ENDCHAR

STARTCHAR atilde
ENCODING 227
SWIDTH 580 0
DWIDTH 7 0
BBX 6 8 1 0
BITMAP
70
00
70
88
78
88
88
7C
ENDCHAR

STARTCHAR adieresis
ENCODING 228
SWIDTH 580 0
DWIDTH 7 0
BBX 6 8 1 0
BITMAP
50
00
70
88
78
88
88
7C
ENDCHAR

STARTCHAR aring
ENCODING 229
SWIDTH 580 0
DWIDTH 7 0
BBX 6 9 1 0
BITMAP
30
48
48
70
88
78
88
88
7C
ENDCHAR

STARTCHAR ae
ENCODING 230
SWIDTH 860 0
DWIDTH 10 0
BBX 9 6 1 0
BITMAP
7700
8880
7F80
8800
8880
7700
ENDCHAR

STARTCHAR ccedilla
ENCODING 231
SWIDTH 520 0
DWIDTH 6 0
BBX 5 8 1 -2
BITMAP
70
88
88
80
88
70
20
60
ENDCHAR

STARTCHAR egrave
ENCODING 232
SWIDTH 520 0
DWIDTH 6 0
BBX 5 8 1 0
BITMAP
10
20
70
88
F8
80
88
70
ENDCHAR

STARTCHAR eacute
ENCODING 233
SWIDTH 520 0
DWIDTH 6 0
BBX 5 8 1 0
BITMAP
40
20
70
88
F8
80
88
70
ENDCHAR

STARTCHAR ecircumflex
ENCODING 234
SWIDTH 520 0
DWIDTH 6 0
BBX 5 9 1 0
BITMAP
20
50
00
70
88
F8
80
88
70
ENDCHAR

STARTCHAR edieresis
ENCODING 235
SWIDTH 520 0
DWIDTH 6 0
BBX 5 8 1 0
BITMAP
50
00
70
88
F8
80
88
70
ENDCHAR

STARTCHAR igrave
ENCODING 236
SWIDTH 300 0
DWIDTH 4 0
BBX 3 8 0 0
BITMAP
80
40
C0
40
40
40
40
E0
ENDCHAR

STARTCHAR iacute
ENCODING 237
SWIDTH 300 0
DWIDTH 4 0
BBX 3 8 0 0
BITMAP
20
40
C0
40
40
40
40
E0
ENDCHAR

STARTCHAR icircumflex
ENCODING 238
SWIDTH 300 0
DWIDTH 4 0
BBX 3 9 0 0
BITMAP
40
A0
00
C0
40
40
40
40
E0
ENDCHAR

STARTCHAR idieresis
ENCODING 239
SWIDTH 300 0
DWIDTH 4 0
BBX 3 8 0 0
BITMAP
A0
00
C0
40
40
40
40
E0
ENDCHAR

STARTCHAR eth
ENCODING 240
SWIDTH 560 0
DWIDTH 7 0
BBX 6 10 0 0
BITMAP
68
18
38
0C
7C
CC
84
84
CC
78
ENDCHAR

STARTCHAR ntilde
ENCODING 241
SWIDTH 660 0
DWIDTH 8 0
BBX 7 8 1 0
BITMAP
78
00
FC
44
44
44
44
EE
ENDCHAR

STARTCHAR ograve
ENCODING 242
SWIDTH 560 0
DWIDTH 7 0
BBX 6 8 0 0
BITMAP
20
10
78
CC
84
84
CC
78
ENDCHAR

STARTCHAR oacute
ENCODING 243
SWIDTH 560 0
DWIDTH 7 0
BBX 6 8 0 0
BITMAP
08
10
78
CC
84
84
CC
78
ENDCHAR

STARTCHAR ocircumflex
ENCODING 244
SWIDTH 560 0
DWIDTH 7 0
BBX 6 9 0 0
BITMAP
20
50
00
78
CC
84
84
CC
78
ENDCHAR

STARTCHAR otilde
ENCODING 245
SWIDTH 560 0
DWIDTH 7 0
BBX 6 8 0 0
BITMAP
78
00
78
CC
84
84
CC
78
ENDCHAR

STARTCHAR odieresis
ENCODING 246
SWIDTH 560 0
DWIDTH 7 0
BBX 6 8 0 0
BITMAP
50
00
78
CC
84
84
CC
78
ENDCHAR

STARTCHAR divide
ENCODING 247
SWIDTH 600 0
DWIDTH 7 0
BBX 5 7 1 1
BITMAP
20
00
00
F8
00
00
20
ENDCHAR

STARTCHAR oslash
ENCODING 248
SWIDTH 560 0
DWIDTH 7 0
BBX 6 7 0 0
BITMAP
04
78
DC
94
A4
6C
B8
ENDCHAR

STARTCHAR ugrave
ENCODING 249
SWIDTH 680 0
DWIDTH 8 0
BBX 7 8 1 0
BITMAP
20
10
CC
44
44
44
44
7E
ENDCHAR

STARTCHAR uacute
ENCODING 250
SWIDTH 680 0
DWIDTH 8 0
BBX 7 8 1 0
BITMAP
08
10
CC
44
44
44
44
7E
ENDCHAR

STARTCHAR ucircumflex
ENCODING 251
SWIDTH 680 0
DWIDTH 8 0
BBX 7 9 1 0
BITMAP
10
28
00
CC
44
44
44
44
7E
ENDCHAR

STARTCHAR udieresis
ENCODING 252
SWIDTH 680 0
DWIDTH 8 0
BBX 7 8 1 0
BITMAP
28
00
CC
44
44
44
44
7E
ENDCHAR

STARTCHAR yacute
ENCODING 253
SWIDTH 540 0
DWIDTH 6 0
BBX 7 11 0 -3
BITMAP
08
10
EE
44
64
28
28
10
10
20
E0
ENDCHAR

STARTCHAR thorn
ENCODING 254
SWIDTH 620 0
DWIDTH 7 0
BBX 7 12 0 -3
BITMAP
C0
40
40
7C
46
42
42
46
7C
40
40
E0
ENDCHAR

STARTCHAR ydieresis
ENCODING 255
SWIDTH 540 0
DWIDTH 6 0
BBX 7 11 0 -3
BITMAP
28
00
EE
44
64
28
28
10
10
20
E0
ENDCHAR
ENDFONT
